<svg id="Capa_1" fill="#e32e2e" height="512" viewBox="0 0 512.003 512.003" width="512" xmlns="http://www.w3.org/2000/svg"><path d="M476.535 73.722c-24.894-29.601-59.371-47.914-97.082-51.565-46.7-4.521-92.208 13.126-123.452 47.458-31.243-34.332-76.751-51.974-123.451-47.458-37.698 3.65-72.167 21.949-97.059 51.526C10.786 103.042-1.749 140.17.197 178.23c3.31 64.733 39.936 132.589 108.862 201.686 53.902 54.034 112.005 92.838 134.484 107.014a23.573 23.573 0 0012.581 3.614c4.382 0 8.765-1.207 12.588-3.62 22.45-14.172 80.478-52.967 134.315-106.986 68.837-69.07 105.435-136.903 108.776-201.615 1.965-38.073-10.56-75.221-35.268-104.601zm-11.48 9.655a138.427 138.427 0 016.343 8.149l-44.61 44.61a23.379 23.379 0 00-10.463-2.463c-12.976 0-23.532 10.557-23.532 23.532 0 10.353 6.724 19.16 16.032 22.3v27.221c-11.38 2.786-20.354 11.76-23.14 23.14H351.68v-50.037c13.786-3.375 24.048-15.829 24.048-30.64a31.364 31.364 0 00-4.582-16.36l71.012-71.012a134.553 134.553 0 0122.897 21.56zm-48.731 82.36c-4.705 0-8.532-3.828-8.532-8.532s3.828-8.532 8.532-8.532 8.532 3.828 8.532 8.532-3.827 8.532-8.532 8.532zm16.549 71.629c0 9.125-7.423 16.548-16.548 16.548s-16.548-7.423-16.548-16.548 7.423-16.548 16.548-16.548c9.124 0 16.548 7.423 16.548 16.548zm-105.242-88.177c0-9.125 7.423-16.548 16.548-16.548s16.548 7.423 16.548 16.548-7.423 16.548-16.548 16.548-16.548-7.423-16.548-16.548zm33.097 176.354c0 9.125-7.423 16.548-16.548 16.548s-16.548-7.423-16.548-16.548 7.423-16.548 16.548-16.548 16.548 7.424 16.548 16.548zM133.996 37.088c4.338-.42 8.659-.627 12.961-.627 39.128 0 76.229 17.169 101.545 47.39v57.839h-50.037c-3.375-13.786-15.828-24.048-30.64-24.048a31.362 31.362 0 00-16.36 4.582l-68.788-68.79c15.674-8.968 33.077-14.58 51.319-16.346zm50.378 112.101c0 9.125-7.423 16.548-16.548 16.548s-16.548-7.423-16.548-16.548 7.423-16.548 16.548-16.548c9.124 0 16.548 7.423 16.548 16.548zM46.969 83.342c6.871-8.164 14.552-15.367 22.875-21.528l71.016 71.016a31.36 31.36 0 00-4.582 16.359c0 14.812 10.262 27.265 24.048 30.64v50.037h-34.005c-2.786-11.381-11.76-20.354-23.14-23.14v-27.221c9.308-3.139 16.032-11.946 16.032-22.3 0-12.976-10.557-23.532-23.532-23.532-3.757 0-7.309.89-10.463 2.463L40.602 91.52a137.607 137.607 0 016.367-8.178zm48.712 137.476c9.125 0 16.548 7.423 16.548 16.548s-7.423 16.548-16.548 16.548-16.548-7.423-16.548-16.548 7.423-16.548 16.548-16.548zm-8.533-63.613c0-4.705 3.828-8.532 8.532-8.532s8.532 3.828 8.532 8.532-3.828 8.532-8.532 8.532-8.532-3.827-8.532-8.532zm-71.971 20.259c-1.312-25.662 4.697-50.86 17.151-73.005l42.283 42.284a23.378 23.378 0 00-2.462 10.463c0 10.353 6.724 19.16 16.032 22.3v27.221c-11.381 2.786-20.354 11.76-23.14 23.14H25.452c-5.962-17.731-9.396-35.212-10.275-52.403zm377.225 191.885c-18.674 18.737-37.861 35.596-55.844 50.192l-27.422-27.422a23.379 23.379 0 002.463-10.463c0-12.976-10.557-23.532-23.532-23.532s-23.532 10.557-23.532 23.532 10.557 23.532 23.532 23.532c3.757 0 7.309-.89 10.463-2.462l26.221 26.221c-27.825 21.741-51.554 37.406-64.047 45.293a8.515 8.515 0 01-9.161.001c-12.522-7.897-36.317-23.591-64.214-45.371l26.145-26.145a23.378 23.378 0 0010.463 2.462c12.976 0 23.532-10.557 23.532-23.532s-10.557-23.532-23.532-23.532-23.532 10.557-23.532 23.532c0 3.757.89 7.309 2.463 10.464l-27.35 27.35c-17.985-14.586-37.17-31.431-55.841-50.148-42.286-42.391-71.884-84.031-88.584-124.455H65.04c3.375 13.786 15.829 24.048 30.64 24.048s27.265-10.262 30.64-24.048h34.005v8.53a7.5 7.5 0 0015 0v-73.567c11.38-2.786 20.354-11.76 23.14-23.14h73.565a7.5 7.5 0 000-15h-8.528V83.855c28.099-33.544 70.71-51.009 114.506-46.767 18.242 1.766 35.644 7.379 51.317 16.349l-68.786 68.786a31.364 31.364 0 00-16.36-4.582c-14.812 0-27.265 10.262-30.64 24.048h-9.442a7.5 7.5 0 000 15h9.442c2.786 11.381 11.76 20.354 23.14 23.14v115.074c-11.38 2.786-20.354 11.76-23.14 23.14H198.465c-2.786-11.38-11.76-20.353-23.14-23.14v-9.441a7.5 7.5 0 00-15 0v9.441c-13.786 3.375-24.048 15.828-24.048 30.64 0 17.396 14.152 31.548 31.548 31.548 14.811 0 27.264-10.262 30.64-24.048H313.54c3.375 13.786 15.829 24.048 30.64 24.048 17.396 0 31.548-14.152 31.548-31.548 0-14.811-10.262-27.264-24.048-30.64v-50.037h34.005c3.375 13.786 15.828 24.048 30.64 24.048s27.265-10.262 30.64-24.048h33.96c-16.688 40.434-46.265 82.083-88.523 124.483zm-95.803 12.307c0 4.705-3.828 8.532-8.532 8.532s-8.532-3.828-8.532-8.532 3.828-8.532 8.532-8.532 8.532 3.827 8.532 8.532zm-81.193 0c0-4.705 3.828-8.532 8.532-8.532s8.532 3.828 8.532 8.532-3.828 8.532-8.532 8.532-8.532-3.827-8.532-8.532zm-31.032-56.113c0 9.125-7.423 16.548-16.548 16.548s-16.548-7.423-16.548-16.548 7.423-16.548 16.548-16.548c9.124 0 16.548 7.424 16.548 16.548zm312.448-147.994c-.886 17.164-4.315 34.616-10.26 52.317h-39.597c-2.786-11.381-11.76-20.354-23.14-23.14v-27.221c9.308-3.139 16.032-11.946 16.032-22.3 0-3.757-.89-7.309-2.462-10.463l42.278-42.278c12.467 22.17 18.475 47.397 17.149 73.085z"/><path d="M215.922 292.963h80.161c8.556 0 15.516-6.96 15.516-15.516v-80.161c0-8.556-6.96-15.516-15.516-15.516h-80.161c-8.556 0-15.516 6.96-15.516 15.516v80.161c0 8.556 6.96 15.516 15.516 15.516zm-.516-95.677c0-.285.231-.516.516-.516h80.161c.285 0 .516.231.516.516v80.161a.516.516 0 01-.516.516h-80.161a.516.516 0 01-.516-.516z"/></svg>