<!DOCTYPE svg PUBLIC "-//W3C//DTD SVG 20010904//EN" "http://www.w3.org/TR/2001/REC-SVG-20010904/DTD/svg10.dtd">
<svg version="1.0" xmlns="http://www.w3.org/2000/svg" width="512px" height="512px" viewBox="0 0 5120 5120" preserveAspectRatio="xMidYMid meet">
<g id="layer101" fill="#070614" stroke="none">
 <path d="M3232 4560 c-2 -34 1 -40 18 -40 15 0 20 7 20 28 0 26 -15 52 -30 52 -4 0 -7 -18 -8 -40z"/>
 <path d="M1327 4563 c-4 -3 -7 -12 -7 -20 0 -10 22 -13 90 -13 53 0 90 -4 90 -10 0 -6 -35 -10 -85 -10 -75 0 -85 -2 -95 -21 -7 -11 -9 -31 -6 -44 7 -27 38 -35 142 -35 73 0 74 0 74 26 0 26 0 27 -57 20 -32 -3 -71 -2 -88 3 -24 7 -14 9 51 10 88 1 104 9 104 53 0 21 -6 31 -26 38 -28 11 -177 14 -187 3z"/>
 <path d="M1590 4557 c-22 -11 -25 -19 -28 -80 -3 -62 -1 -67 18 -67 18 0 20 6 20 55 l0 55 65 0 65 0 0 -55 c0 -48 2 -55 20 -55 18 0 20 7 20 64 0 56 -3 67 -22 80 -27 19 -122 21 -158 3z"/>
 <path d="M2284 4557 c-10 -28 6 -37 64 -37 45 -1 53 -3 39 -11 -10 -6 -35 -8 -58 -4 -56 10 -89 -13 -89 -60 0 -28 4 -35 20 -35 15 0 20 7 20 25 0 24 3 25 59 25 54 0 60 -2 63 -22 2 -15 10 -23 23 -23 18 0 20 7 20 62 0 36 -5 67 -13 75 -6 6 -41 14 -77 16 -52 4 -66 1 -71 -11z"/>
 <path d="M2610 4562 c0 -4 30 -38 68 -75 50 -49 75 -67 94 -67 23 0 28 5 33 33 11 56 2 111 -17 115 -13 2 -18 -3 -18 -17 0 -18 -6 -21 -38 -21 -26 0 -45 7 -57 20 -17 19 -65 28 -65 12z m160 -88 c0 -14 -3 -14 -15 -4 -8 7 -15 14 -15 16 0 2 7 4 15 4 8 0 15 -7 15 -16z"/>
 <path d="M2850 4557 c-22 -11 -25 -19 -28 -80 -3 -62 -1 -67 18 -67 18 0 20 6 20 55 l0 55 60 0 c57 0 60 1 60 25 0 24 -3 25 -52 25 -29 0 -64 -6 -78 -13z"/>
 <path d="M3033 4560 c-25 -10 -38 -56 -28 -101 9 -39 36 -49 131 -49 73 0 74 0 74 26 0 26 -1 26 -52 20 -29 -3 -66 -2 -83 3 -24 7 -14 9 53 10 74 1 82 3 82 21 0 17 -8 20 -82 23 l-83 3 83 2 c80 2 82 3 82 27 0 25 -1 25 -77 24 -43 0 -88 -4 -100 -9z"/>
 <path d="M3413 4560 c-25 -10 -38 -56 -28 -101 9 -40 39 -51 134 -47 68 3 76 5 76 23 0 18 -8 20 -82 23 l-83 3 0 29 0 29 83 3 c74 3 82 5 82 23 0 18 -7 20 -80 22 -44 1 -90 -2 -102 -7z"/>
 <path d="M3612 4498 c3 -69 4 -73 28 -76 20 -2 41 13 100 73 67 68 72 75 49 75 -14 0 -34 -9 -44 -20 -12 -13 -31 -20 -55 -20 -29 0 -39 5 -43 20 -3 11 -12 20 -22 20 -13 0 -15 -11 -13 -72z m68 -12 c0 -2 -7 -9 -15 -16 -12 -10 -15 -10 -15 4 0 9 7 16 15 16 8 0 15 -2 15 -4z"/>
 <path d="M1792 4493 c3 -64 4 -68 28 -71 19 -2 36 9 70 43 24 25 48 45 52 45 4 0 8 -20 8 -45 0 -41 2 -45 25 -45 23 0 25 3 25 51 0 104 -37 116 -117 37 l-53 -52 0 52 c0 46 -2 52 -20 52 -19 0 -21 -5 -18 -67z"/>
 <path d="M2010 4509 c0 -104 37 -116 117 -37 l53 52 0 -52 c0 -45 3 -52 20 -52 18 0 20 7 20 54 0 30 -3 61 -6 70 -12 31 -54 18 -110 -35 l-54 -52 0 52 c0 44 -3 51 -20 51 -17 0 -20 -7 -20 -51z"/>
 <path d="M2496 4493 c-20 -37 -36 -71 -36 -75 0 -17 30 -7 43 15 8 12 23 37 34 55 l20 34 32 -56 c17 -31 38 -56 46 -56 22 0 18 18 -18 85 -25 47 -38 61 -59 63 -23 3 -30 -4 -62 -65z"/>
 <path d="M1280 4300 c0 -20 7 -20 1280 -20 1273 0 1280 0 1280 20 0 20 -7 20 -1280 20 -1273 0 -1280 0 -1280 -20z"/>
 <path d="M3407 4166 c-12 -14 -39 -62 -59 -108 l-37 -83 -1 103 0 102 -41 0 -41 0 3 -126 c4 -123 5 -126 32 -150 35 -30 48 -30 85 1 26 22 46 62 94 185 9 23 13 17 48 -70 56 -134 102 -169 155 -115 24 23 25 30 25 150 l0 125 -35 0 -35 0 0 -107 0 -108 -41 90 c-58 130 -105 164 -152 111z"/>
 <path d="M910 4141 l0 -41 177 -2 c130 -2 177 -6 181 -15 3 -10 -31 -13 -146 -13 -164 0 -208 -9 -223 -47 -15 -39 -10 -89 10 -114 19 -24 23 -24 215 -27 l196 -4 0 41 0 41 -176 0 c-136 0 -175 3 -172 13 3 9 49 13 165 17 193 6 203 11 203 95 0 87 -6 89 -236 93 l-194 3 0 -40z"/>
 <path d="M1470 4141 l0 -40 122 -3 c106 -3 123 -5 126 -20 3 -15 -13 -17 -143 -20 -147 -3 -147 -3 -171 -31 -20 -23 -24 -39 -24 -88 l0 -59 40 0 40 0 0 50 0 51 128 -3 127 -3 3 -47 3 -48 41 0 40 0 -4 125 c-5 172 -2 169 -188 173 l-140 4 0 -41z"/>
 <path d="M1850 4141 l0 -41 177 -2 c130 -2 177 -6 181 -15 3 -10 -31 -13 -146 -13 -164 0 -208 -9 -223 -47 -15 -39 -10 -89 10 -114 19 -24 23 -24 215 -27 l196 -4 0 41 0 41 -176 0 c-136 0 -175 3 -172 13 3 9 49 13 165 17 193 6 203 11 203 95 0 87 -6 89 -236 93 l-194 3 0 -40z"/>
 <path d="M2500 4070 l0 -110 -85 0 -85 0 0 -40 0 -40 210 0 210 0 0 40 0 40 -85 0 -85 0 0 110 0 110 -40 0 -40 0 0 -110z"/>
 <path d="M2809 4151 c-27 -28 -29 -34 -29 -110 0 -153 13 -161 245 -161 l165 0 0 40 0 40 -165 0 c-140 0 -165 2 -165 15 0 13 25 15 165 15 l165 0 0 40 0 40 -165 0 c-140 0 -165 2 -165 15 0 13 25 15 165 15 l165 0 0 40 0 40 -176 0 -176 0 -29 -29z"/>
 <path d="M3730 4141 l0 -41 175 0 c145 0 175 -2 175 -14 0 -12 -30 -15 -164 -18 -196 -4 -206 -8 -206 -93 0 -87 6 -89 236 -93 l194 -3 0 40 0 41 -175 0 c-149 0 -175 2 -175 15 0 13 23 15 144 15 149 0 200 9 216 40 17 31 12 96 -9 121 -19 24 -23 24 -215 27 l-196 3 0 -40z"/>
 <path d="M553 3735 c-24 -10 -34 -23 -42 -52 -14 -50 -14 -132 0 -172 19 -54 47 -61 239 -61 l170 0 0 40 0 40 -170 0 -171 0 3 68 3 67 168 3 167 2 0 40 0 40 -167 0 c-120 -1 -177 -5 -200 -15z"/>
 <path d="M1057 3743 c-4 -3 -7 -21 -7 -39 l0 -33 122 -3 c106 -3 123 -5 126 -20 3 -15 -13 -17 -143 -20 -147 -3 -147 -3 -171 -31 -20 -23 -24 -39 -24 -88 l0 -59 39 0 40 0 3 48 3 47 125 0 125 0 3 -47 3 -48 40 0 39 0 0 98 c0 187 -14 202 -198 202 -65 0 -122 -3 -125 -7z"/>
 <path d="M1413 3735 c-3 -9 -2 -76 2 -151 l7 -135 195 3 c230 4 228 3 220 103 -3 32 -1 67 4 77 6 10 7 34 3 54 -10 56 -41 64 -249 64 -148 0 -177 -2 -182 -15z m345 -82 c3 -10 -27 -13 -127 -13 -111 0 -131 2 -131 15 0 13 18 15 127 13 90 -2 128 -7 131 -15z m2 -108 c0 -13 -21 -15 -130 -15 -109 0 -130 2 -130 15 0 13 21 15 130 15 109 0 130 -2 130 -15z"/>
 <path d="M1934 3740 c-42 -17 -54 -48 -54 -143 0 -85 1 -90 29 -118 l29 -29 176 0 176 0 0 40 0 40 -165 0 c-140 0 -165 2 -165 15 0 13 25 15 165 15 l165 0 0 40 0 40 -165 0 c-140 0 -165 2 -165 15 0 13 25 15 165 15 l165 0 0 40 0 40 -167 -1 c-93 0 -178 -4 -189 -9z"/>
 <path d="M2330 3600 l0 -150 186 0 c102 0 193 4 203 10 22 11 35 79 22 112 -5 13 -5 31 -1 39 4 7 11 42 15 77 l7 62 -41 0 c-40 0 -41 -1 -41 -32 0 -80 2 -78 -141 -78 l-129 0 0 55 0 55 -40 0 -40 0 0 -150z m338 -57 c3 -10 -27 -13 -127 -13 -111 0 -131 2 -131 15 0 13 18 15 127 13 90 -2 128 -7 131 -15z"/>
 <path d="M2790 3601 l0 -151 173 0 c118 0 180 4 197 13 35 18 53 77 47 161 -4 57 -9 72 -31 95 -26 26 -27 26 -206 29 l-180 3 0 -150z m338 2 l-3 -68 -127 -3 -128 -3 0 71 0 70 130 0 131 0 -3 -67z"/>
 <path d="M3330 3711 l0 -41 120 0 c113 0 120 -1 120 -20 0 -19 -7 -20 -125 -20 -155 0 -189 -11 -204 -67 -6 -21 -11 -55 -11 -75 0 -38 1 -38 39 -38 l40 0 3 48 3 47 125 0 125 0 3 -47 3 -48 40 0 39 0 0 119 c0 112 -2 122 -24 148 -24 28 -25 28 -160 31 l-136 4 0 -41z"/>
 <path d="M3690 3621 c0 -118 2 -133 20 -151 13 -13 33 -20 56 -20 33 0 48 10 145 107 l109 107 0 -107 0 -107 40 0 40 0 0 125 c0 120 -1 127 -25 150 -43 44 -65 35 -187 -80 l-113 -104 -5 102 -5 102 -37 3 -38 3 0 -130z"/>
 <path d="M4194 3740 c-42 -17 -54 -48 -54 -143 0 -85 1 -90 29 -118 l29 -29 176 0 176 0 0 40 0 40 -165 0 c-140 0 -165 2 -165 15 0 13 25 15 165 15 l165 0 0 40 0 40 -165 0 c-140 0 -165 2 -165 15 0 13 25 15 165 15 l165 0 0 40 0 40 -167 -1 c-93 0 -178 -4 -189 -9z"/>
 <path d="M406 3274 c-21 -20 -20 -24 7 -60 44 -59 1100 -1194 1110 -1194 6 0 -14 26 -44 58 -55 56 -1026 1107 -1062 1149 -17 19 -17 22 -2 37 15 15 110 16 1034 16 850 0 1020 -2 1030 -14 8 -9 11 -105 9 -332 l-3 -319 -55 -36 c-85 -57 -658 -416 -839 -526 -30 -18 -49 -33 -42 -33 13 0 901 550 934 578 15 14 17 43 17 342 0 240 -3 329 -12 338 -9 9 -254 12 -1039 12 -921 0 -1029 -2 -1043 -16z"/>
 <path d="M2632 3278 c-6 -8 -11 -136 -14 -335 -3 -312 -2 -323 17 -342 11 -10 200 -131 420 -268 511 -319 518 -323 532 -323 15 0 1143 1219 1143 1236 0 7 -7 20 -16 28 -14 14 -122 16 -1043 16 -811 0 -1031 -3 -1039 -12z"/>
 <path d="M2160 2251 c-546 -334 -520 -317 -520 -344 0 -30 893 -997 920 -997 25 0 924 963 928 994 2 17 -5 30 -25 44 -89 62 -889 532 -907 532 -12 0 -190 -104 -396 -229z m866 -53 c280 -168 454 -278 454 -288 0 -8 -82 -103 -183 -210 -548 -588 -730 -780 -737 -780 -13 0 -910 971 -910 985 0 7 7 19 16 26 34 28 879 539 892 539 8 0 218 -123 468 -272z"/>
 </g>
<g id="layer102" fill="#c00000" stroke="none">
 <path d="M2290 5109 c-607 -74 -1125 -323 -1541 -738 -373 -374 -624 -856 -713 -1372 -54 -309 -46 -684 20 -983 185 -837 772 -1527 1564 -1839 186 -73 388 -126 605 -159 121 -18 549 -18 670 0 712 107 1303 456 1722 1017 256 343 417 738 485 1190 18 121 18 549 0 670 -107 712 -456 1303 -1017 1722 -333 249 -715 408 -1151 479 -117 19 -530 27 -644 13z m490 -160 c706 -64 1363 -450 1759 -1033 365 -538 499 -1187 375 -1816 -171 -868 -793 -1562 -1640 -1829 -700 -220 -1455 -107 -2070 310 -367 250 -669 615 -843 1022 -330 767 -248 1623 220 2313 250 367 615 669 1021 843 377 162 779 227 1178 190z"/>
 <path d="M415 3264 c-15 -15 -15 -18 2 -37 10 -12 265 -288 566 -614 513 -555 550 -592 570 -582 43 23 777 481 877 548 l55 36 3 319 c2 227 -1 323 -9 332 -10 12 -180 14 -1030 14 -924 0 -1019 -1 -1034 -16z"/>
 <path d="M2113 2207 c-237 -145 -438 -269 -447 -276 -9 -7 -16 -19 -16 -26 0 -14 897 -985 910 -985 7 0 189 192 737 780 101 107 183 202 183 210 0 16 -896 560 -922 560 -7 0 -207 -118 -445 -263z"/>
 </g>
<g id="layer103" fill="#ffffff" stroke="none">
 <path d="M2325 4949 c-297 -28 -667 -143 -928 -290 -547 -307 -938 -789 -1126 -1385 -291 -923 5 -1929 753 -2558 360 -302 843 -502 1316 -545 864 -79 1715 320 2198 1033 186 273 313 576 376 896 185 935 -212 1905 -998 2438 -470 320 -1027 463 -1591 411z m933 -361 c7 -7 12 -25 12 -40 0 -21 -5 -28 -20 -28 -17 0 -20 6 -18 40 1 42 6 48 26 28z m-1744 -28 c20 -7 26 -17 26 -38 0 -44 -16 -52 -104 -53 -65 -1 -75 -3 -51 -10 17 -5 56 -6 88 -3 57 7 57 6 57 -20 0 -26 -1 -26 -74 -26 -104 0 -135 8 -142 35 -3 13 -1 33 6 44 10 19 20 21 95 21 50 0 85 4 85 10 0 6 -37 10 -90 10 -68 0 -90 3 -90 13 0 8 3 17 7 20 10 11 159 8 187 -3z m234 -6 c19 -13 22 -24 22 -80 0 -57 -2 -64 -20 -64 -18 0 -20 7 -20 55 l0 55 -65 0 -65 0 0 -55 c0 -49 -2 -55 -20 -55 -19 0 -21 5 -18 67 3 61 6 69 28 80 36 18 131 16 158 -3z m684 -2 c8 -8 13 -39 13 -75 0 -55 -2 -62 -20 -62 -13 0 -21 8 -23 23 -3 20 -9 22 -63 22 -56 0 -59 -1 -59 -25 0 -18 -5 -25 -20 -25 -16 0 -20 7 -20 35 0 47 33 70 89 60 23 -4 48 -2 58 4 14 8 6 10 -39 11 -58 0 -74 9 -64 37 5 12 19 15 71 11 36 -2 71 -10 77 -16z m243 -2 c12 -13 31 -20 57 -20 32 0 38 3 38 21 0 14 5 19 18 17 19 -4 28 -59 17 -115 -5 -28 -10 -33 -33 -33 -19 0 -44 18 -94 67 -38 37 -68 71 -68 75 0 16 48 7 65 -12z m305 -5 c0 -24 -3 -25 -60 -25 l-60 0 0 -55 c0 -49 -2 -55 -20 -55 -19 0 -21 5 -18 67 3 61 6 69 28 80 14 7 49 13 78 13 49 0 52 -1 52 -25z m230 0 c0 -24 -2 -25 -82 -27 l-83 -2 83 -3 c74 -3 82 -6 82 -23 0 -18 -8 -20 -82 -21 -67 -1 -77 -3 -53 -10 17 -5 54 -6 83 -3 51 6 52 6 52 -20 0 -26 -1 -26 -74 -26 -95 0 -122 10 -131 49 -10 45 3 91 28 101 12 5 57 9 100 9 76 1 77 1 77 -24z m385 0 c0 -18 -8 -20 -82 -23 l-83 -3 0 -29 0 -29 83 -3 c74 -3 82 -5 82 -23 0 -18 -8 -20 -76 -23 -95 -4 -125 7 -134 47 -10 45 3 91 28 101 12 5 58 8 102 7 73 -2 80 -4 80 -22z m52 5 c4 -15 14 -20 43 -20 24 0 43 7 55 20 10 11 30 20 44 20 23 0 18 -7 -49 -75 -59 -60 -80 -75 -100 -73 -24 3 -25 7 -28 76 -2 61 0 72 13 72 10 0 19 -9 22 -20z m-1817 -42 l0 -52 53 52 c80 79 117 67 117 -37 0 -48 -2 -51 -25 -51 -23 0 -25 4 -25 45 0 25 -4 45 -8 45 -4 0 -28 -20 -52 -45 -34 -34 -51 -45 -70 -43 -24 3 -25 7 -28 71 -3 62 -1 67 18 67 18 0 20 -6 20 -52z m220 1 l0 -52 54 52 c56 53 98 66 110 35 3 -9 6 -40 6 -70 0 -47 -2 -54 -20 -54 -17 0 -20 7 -20 52 l0 52 -53 -52 c-80 -79 -117 -67 -117 37 0 44 3 51 20 51 17 0 20 -7 20 -51z m567 -14 c36 -67 40 -85 18 -85 -8 0 -29 25 -46 56 l-32 56 -20 -34 c-11 -18 -26 -43 -34 -55 -13 -22 -43 -32 -43 -15 0 4 16 38 36 75 32 61 39 68 62 65 21 -2 34 -16 59 -63z m1223 -195 c0 -20 -7 -20 -1280 -20 -1273 0 -1280 0 -1280 20 0 20 7 20 1280 20 1273 0 1280 0 1280 -20z m-346 -132 c14 -13 43 -63 65 -113 l41 -90 0 108 0 107 35 0 35 0 0 -125 c0 -120 -1 -127 -25 -150 -53 -54 -99 -19 -155 115 -35 87 -39 93 -48 70 -48 -123 -68 -163 -94 -185 -37 -31 -50 -31 -85 -1 -27 24 -28 27 -32 150 l-3 126 41 0 41 0 0 -102 1 -103 37 83 c58 131 93 157 146 110z m-2175 -12 c16 -15 21 -31 21 -71 0 -84 -10 -89 -203 -95 -116 -4 -162 -8 -165 -17 -3 -10 36 -13 172 -13 l176 0 0 -41 0 -41 -196 4 c-192 3 -196 3 -215 27 -20 25 -25 75 -10 114 15 38 59 47 223 47 115 0 149 3 146 13 -4 9 -51 13 -181 15 l-177 2 0 41 0 40 194 -3 c174 -3 196 -5 215 -22z m453 -3 c20 -20 22 -35 26 -148 l4 -125 -40 0 -41 0 -3 48 -3 47 -127 3 -128 3 0 -51 0 -50 -40 0 -40 0 0 59 c0 49 4 65 24 88 24 28 24 28 171 31 130 3 146 5 143 20 -3 15 -20 17 -126 20 l-122 3 0 40 0 41 140 -4 c129 -3 141 -5 162 -25z m487 3 c16 -15 21 -31 21 -71 0 -84 -10 -89 -203 -95 -116 -4 -162 -8 -165 -17 -3 -10 36 -13 172 -13 l176 0 0 -41 0 -41 -196 4 c-192 3 -196 3 -215 27 -20 25 -25 75 -10 114 15 38 59 47 223 47 115 0 149 3 146 13 -4 9 -51 13 -181 15 l-177 2 0 41 0 40 194 -3 c174 -3 196 -5 215 -22z m321 -86 l0 -110 85 0 85 0 0 -40 0 -40 -210 0 -210 0 0 40 0 40 85 0 85 0 0 110 0 110 40 0 40 0 0 -110z m610 70 l0 -40 -165 0 c-140 0 -165 -2 -165 -15 0 -13 25 -15 165 -15 l165 0 0 -40 0 -40 -165 0 c-140 0 -165 -2 -165 -15 0 -13 25 -15 165 -15 l165 0 0 -40 0 -40 -165 0 c-232 0 -245 8 -245 161 0 76 2 82 29 110 l29 29 176 0 176 0 0 -40z m951 11 c21 -25 26 -90 9 -121 -16 -31 -67 -40 -216 -40 -121 0 -144 -2 -144 -15 0 -13 26 -15 175 -15 l175 0 0 -41 0 -40 -194 3 c-230 4 -236 6 -236 93 0 85 10 89 206 93 134 3 164 6 164 18 0 12 -30 14 -175 14 l-175 0 0 41 0 40 196 -3 c192 -3 196 -3 215 -27z m-3221 -441 l0 -40 -167 -2 -168 -3 -3 -67 -3 -68 171 0 170 0 0 -40 0 -40 -170 0 c-192 0 -220 7 -239 61 -14 40 -14 122 0 172 16 59 43 66 242 67 l167 0 0 -40z m410 25 c38 -20 50 -64 50 -187 l0 -98 -39 0 -40 0 -3 48 -3 47 -125 0 -125 0 -3 -47 -3 -48 -40 0 -39 0 0 59 c0 49 4 65 24 88 24 28 24 28 171 31 130 3 146 5 143 20 -3 15 -20 17 -126 20 l-122 3 0 33 c0 18 3 36 7 39 3 4 60 7 125 7 86 0 127 -4 148 -15z m474 1 c26 -11 35 -21 40 -50 4 -20 3 -44 -3 -54 -5 -10 -7 -45 -4 -77 8 -100 10 -99 -220 -103 l-195 -3 -7 135 c-4 75 -5 142 -2 151 5 13 34 15 182 15 128 0 185 -4 209 -14z m486 -26 l0 -40 -165 0 c-140 0 -165 -2 -165 -15 0 -13 25 -15 165 -15 l165 0 0 -40 0 -40 -165 0 c-140 0 -165 -2 -165 -15 0 -13 25 -15 165 -15 l165 0 0 -40 0 -40 -176 0 -176 0 -29 29 c-28 28 -29 33 -29 118 0 95 12 126 54 143 11 5 96 9 189 9 l167 1 0 -40z m120 -15 l0 -55 129 0 c143 0 141 -2 141 78 0 31 1 32 41 32 l41 0 -7 -62 c-4 -35 -11 -70 -15 -77 -4 -8 -4 -26 1 -39 13 -33 0 -101 -22 -112 -10 -6 -101 -10 -203 -10 l-186 0 0 150 0 150 40 0 40 0 0 -55z m766 24 c52 -53 41 -227 -16 -256 -17 -9 -79 -13 -197 -13 l-173 0 0 151 0 150 180 -3 c179 -3 180 -3 206 -29z m450 -2 c22 -26 24 -36 24 -148 l0 -119 -39 0 -40 0 -3 48 -3 47 -125 0 -125 0 -3 -47 -3 -48 -40 0 c-38 0 -39 0 -39 38 0 20 5 54 11 75 15 56 49 67 204 67 118 0 125 1 125 20 0 19 -7 20 -120 20 l-120 0 0 41 0 41 136 -4 c135 -3 136 -3 160 -31z m144 -74 l5 -102 113 104 c122 115 144 124 187 80 24 -23 25 -30 25 -150 l0 -125 -40 0 -40 0 0 107 0 107 -109 -107 c-97 -97 -112 -107 -145 -107 -23 0 -43 7 -56 20 -18 18 -20 33 -20 151 l0 130 38 -3 37 -3 5 -102z m780 67 l0 -40 -165 0 c-140 0 -165 -2 -165 -15 0 -13 25 -15 165 -15 l165 0 0 -40 0 -40 -165 0 c-140 0 -165 -2 -165 -15 0 -13 25 -15 165 -15 l165 0 0 -40 0 -40 -176 0 -176 0 -29 29 c-28 28 -29 33 -29 118 0 95 12 126 54 143 11 5 96 9 189 9 l167 1 0 -40z m-2062 -432 c9 -9 12 -98 12 -338 0 -299 -2 -328 -17 -342 -10 -8 -221 -142 -469 -297 -277 -172 -461 -281 -477 -281 -20 0 -129 113 -563 582 -515 556 -584 633 -584 649 0 4 7 15 16 23 14 14 122 16 1043 16 785 0 1030 -3 1039 -12z m2226 -4 c9 -8 16 -21 16 -28 0 -17 -1128 -1236 -1143 -1236 -14 0 -21 4 -532 323 -220 137 -409 258 -420 268 -19 19 -20 30 -17 342 3 199 8 327 14 335 8 9 228 12 1039 12 921 0 1029 -2 1043 -16z m-1708 -1050 c236 -141 442 -266 457 -276 20 -14 27 -27 25 -44 -4 -31 -903 -994 -928 -994 -27 0 -920 967 -920 997 0 27 -26 10 520 344 206 125 384 229 396 229 12 0 214 -115 450 -256z"/>
 <path d="M2740 4486 c0 -2 7 -9 15 -16 12 -10 15 -10 15 4 0 9 -7 16 -15 16 -8 0 -15 -2 -15 -4z"/>
 <path d="M3650 4474 c0 -14 3 -14 15 -4 8 7 15 14 15 16 0 2 -7 4 -15 4 -8 0 -15 -7 -15 -16z"/>
 <path d="M1500 3655 c0 -13 20 -15 131 -15 100 0 130 3 127 13 -3 8 -41 13 -131 15 -109 2 -127 0 -127 -13z"/>
 <path d="M1500 3545 c0 -13 21 -15 130 -15 109 0 130 2 130 15 0 13 -21 15 -130 15 -109 0 -130 -2 -130 -15z"/>
 <path d="M2410 3545 c0 -13 20 -15 131 -15 100 0 130 3 127 13 -3 8 -41 13 -131 15 -109 2 -127 0 -127 -13z"/>
 <path d="M2870 3600 l0 -71 128 3 127 3 3 68 3 67 -131 0 -130 0 0 -70z"/>
 </g>

</svg>