<svg id="Capa_1" enable-background="new 0 0 512.003 512.003" fill="#e32e2e" height="512" viewBox="0 0 512.003 512.003" width="512" xmlns="http://www.w3.org/2000/svg"><g><path d="m476.535 73.722c-24.894-29.601-59.371-47.914-97.082-51.565-46.7-4.521-92.208 13.126-123.452 47.458-31.243-34.332-76.751-51.974-123.451-47.458-37.698 3.65-72.167 21.949-97.059 51.526-24.705 29.359-37.24 66.487-35.294 104.547 3.31 64.733 39.936 132.589 108.862 201.686 53.902 54.034 112.005 92.838 134.484 107.014 3.822 2.41 8.201 3.615 12.581 3.614 4.382 0 8.765-1.207 12.588-3.62 22.45-14.172 80.478-52.967 134.315-106.986 68.837-69.07 105.435-136.903 108.776-201.615 1.965-38.073-10.56-75.221-35.268-104.601zm-11.48 9.655c2.227 2.648 4.338 5.368 6.343 8.149l-44.61 44.61c-3.154-1.573-6.706-2.463-10.463-2.463-12.976 0-23.532 10.557-23.532 23.532 0 10.353 6.724 19.16 16.032 22.3v27.221c-11.38 2.786-20.354 11.76-23.14 23.14h-34.005v-50.037c13.786-3.375 24.048-15.829 24.048-30.64 0-5.985-1.676-11.587-4.582-16.36l71.012-71.012c8.331 6.17 16.021 13.383 22.897 21.56zm-48.731 82.36c-4.705 0-8.532-3.828-8.532-8.532s3.828-8.532 8.532-8.532 8.532 3.828 8.532 8.532-3.827 8.532-8.532 8.532zm16.549 71.629c0 9.125-7.423 16.548-16.548 16.548s-16.548-7.423-16.548-16.548 7.423-16.548 16.548-16.548c9.124 0 16.548 7.423 16.548 16.548zm-105.242-88.177c0-9.125 7.423-16.548 16.548-16.548s16.548 7.423 16.548 16.548-7.423 16.548-16.548 16.548-16.548-7.423-16.548-16.548zm33.097 176.354c0 9.125-7.423 16.548-16.548 16.548s-16.548-7.423-16.548-16.548 7.423-16.548 16.548-16.548 16.548 7.424 16.548 16.548zm-226.732-288.455c4.338-.42 8.659-.627 12.961-.627 39.128 0 76.229 17.169 101.545 47.39v57.839h-50.037c-3.375-13.786-15.828-24.048-30.64-24.048-5.986 0-11.587 1.676-16.36 4.582l-68.788-68.79c15.674-8.968 33.077-14.58 51.319-16.346zm50.378 112.101c0 9.125-7.423 16.548-16.548 16.548s-16.548-7.423-16.548-16.548 7.423-16.548 16.548-16.548c9.124 0 16.548 7.423 16.548 16.548zm-137.405-65.847c6.871-8.164 14.552-15.367 22.875-21.528l71.016 71.016c-2.906 4.773-4.582 10.374-4.582 16.359 0 14.812 10.262 27.265 24.048 30.64v50.037h-34.005c-2.786-11.381-11.76-20.354-23.14-23.14v-27.221c9.308-3.139 16.032-11.946 16.032-22.3 0-12.976-10.557-23.532-23.532-23.532-3.757 0-7.309.89-10.463 2.463l-44.616-44.616c2.012-2.792 4.131-5.522 6.367-8.178zm48.712 137.476c9.125 0 16.548 7.423 16.548 16.548s-7.423 16.548-16.548 16.548-16.548-7.423-16.548-16.548 7.423-16.548 16.548-16.548zm-8.533-63.613c0-4.705 3.828-8.532 8.532-8.532s8.532 3.828 8.532 8.532-3.828 8.532-8.532 8.532-8.532-3.827-8.532-8.532zm-71.971 20.259c-1.312-25.662 4.697-50.86 17.151-73.005l42.283 42.284c-1.573 3.154-2.462 6.706-2.462 10.463 0 10.353 6.724 19.16 16.032 22.3v27.221c-11.381 2.786-20.354 11.76-23.14 23.14h-39.589c-5.962-17.731-9.396-35.212-10.275-52.403zm377.225 191.885c-18.674 18.737-37.861 35.596-55.844 50.192l-27.422-27.422c1.573-3.154 2.463-6.706 2.463-10.463 0-12.976-10.557-23.532-23.532-23.532s-23.532 10.557-23.532 23.532 10.557 23.532 23.532 23.532c3.757 0 7.309-.89 10.463-2.462l26.221 26.221c-27.825 21.741-51.554 37.406-64.047 45.293-2.826 1.783-6.335 1.783-9.161.001-12.522-7.897-36.317-23.591-64.214-45.371l26.145-26.145c3.154 1.573 6.706 2.462 10.463 2.462 12.976 0 23.532-10.557 23.532-23.532s-10.557-23.532-23.532-23.532-23.532 10.557-23.532 23.532c0 3.757.89 7.309 2.463 10.464l-27.35 27.35c-17.985-14.586-37.17-31.431-55.841-50.148-42.286-42.391-71.884-84.031-88.584-124.455h33.947c3.375 13.786 15.829 24.048 30.64 24.048s27.265-10.262 30.64-24.048h34.005v8.53c0 4.142 3.358 7.5 7.5 7.5s7.5-3.358 7.5-7.5v-73.567c11.38-2.786 20.354-11.76 23.14-23.14h73.565c4.142 0 7.5-3.358 7.5-7.5s-3.358-7.5-7.5-7.5h-8.528v-57.834c28.099-33.544 70.71-51.009 114.506-46.767 18.242 1.766 35.644 7.379 51.317 16.349l-68.786 68.786c-4.773-2.906-10.375-4.582-16.36-4.582-14.812 0-27.265 10.262-30.64 24.048h-9.442c-4.142 0-7.5 3.358-7.5 7.5s3.358 7.5 7.5 7.5h9.442c2.786 11.381 11.76 20.354 23.14 23.14v115.074c-11.38 2.786-20.354 11.76-23.14 23.14h-115.074c-2.786-11.38-11.76-20.353-23.14-23.14v-9.441c0-4.142-3.358-7.5-7.5-7.5s-7.5 3.358-7.5 7.5v9.441c-13.786 3.375-24.048 15.828-24.048 30.64 0 17.396 14.152 31.548 31.548 31.548 14.811 0 27.264-10.262 30.64-24.048h115.075c3.375 13.786 15.829 24.048 30.64 24.048 17.396 0 31.548-14.152 31.548-31.548 0-14.811-10.262-27.264-24.048-30.64v-50.037h34.005c3.375 13.786 15.828 24.048 30.64 24.048s27.265-10.262 30.64-24.048h33.96c-16.688 40.434-46.265 82.083-88.523 124.483zm-95.803 12.307c0 4.705-3.828 8.532-8.532 8.532s-8.532-3.828-8.532-8.532 3.828-8.532 8.532-8.532 8.532 3.827 8.532 8.532zm-81.193 0c0-4.705 3.828-8.532 8.532-8.532s8.532 3.828 8.532 8.532-3.828 8.532-8.532 8.532-8.532-3.827-8.532-8.532zm-31.032-56.113c0 9.125-7.423 16.548-16.548 16.548s-16.548-7.423-16.548-16.548 7.423-16.548 16.548-16.548c9.124 0 16.548 7.424 16.548 16.548zm312.448-147.994c-.886 17.164-4.315 34.616-10.26 52.317h-39.597c-2.786-11.381-11.76-20.354-23.14-23.14v-27.221c9.308-3.139 16.032-11.946 16.032-22.3 0-3.757-.89-7.309-2.462-10.463l42.278-42.278c12.467 22.17 18.475 47.397 17.149 73.085z"/><path d="m215.922 292.963h80.161c8.556 0 15.516-6.96 15.516-15.516v-80.161c0-8.556-6.96-15.516-15.516-15.516h-80.161c-8.556 0-15.516 6.96-15.516 15.516v80.161c0 8.556 6.96 15.516 15.516 15.516zm-.516-95.677c0-.285.231-.516.516-.516h80.161c.285 0 .516.231.516.516v80.161c0 .285-.231.516-.516.516h-80.161c-.285 0-.516-.231-.516-.516z"/></g></svg>